<svg xmlns="http://www.w3.org/2000/svg" width="960" height="640" viewBox="0 0 960 640" role="img" aria-labelledby="title desc">
  <title id="title">Annual Medicare plan review</title>
  <desc id="desc">Friendly Medicare in Spokane illustration in soft blue, green, and warm neutral tones.</desc>
  <defs>
    <linearGradient id="softBg" x1="0" y1="0" x2="1" y2="1">
      <stop offset="0%" stop-color="#EFF8FF"/>
      <stop offset="100%" stop-color="#F7FBF7"/>
    </linearGradient>
    <filter id="shadow" x="-20%" y="-20%" width="140%" height="140%">
      <feDropShadow dx="0" dy="10" stdDeviation="14" flood-color="#0F3B5F" flood-opacity="0.12"/>
    </filter>
  </defs>
  <rect width="100%" height="100%" rx="48" fill="url(#softBg)"/>
  
  <rect x="130" y="112" width="700" height="420" rx="36" fill="#FFFFFF" filter="url(#shadow)"/>
  <rect x="190" y="165" width="255" height="285" rx="24" fill="#EAF6FF" stroke="#2C5575" stroke-width="4"/>
  <text x="230" y="220" fill="#0F3B5F" font-size="32" font-family="Arial, sans-serif" font-weight="700">Annual Review</text>
  <circle cx="235" cy="284" r="15" fill="#7EB77F"/><path d="M226 284l7 8 15-18" stroke="#FFFFFF" stroke-width="5" fill="none" stroke-linecap="round" stroke-linejoin="round"/>
  <circle cx="235" cy="344" r="15" fill="#7EB77F"/><path d="M226 344l7 8 15-18" stroke="#FFFFFF" stroke-width="5" fill="none" stroke-linecap="round" stroke-linejoin="round"/>
  <circle cx="235" cy="404" r="15" fill="#7EB77F"/><path d="M226 404l7 8 15-18" stroke="#FFFFFF" stroke-width="5" fill="none" stroke-linecap="round" stroke-linejoin="round"/>
  <rect x="270" y="275" width="115" height="18" rx="9" fill="#BFE4FF"/>
  <rect x="270" y="335" width="145" height="18" rx="9" fill="#DFF3E3"/>
  <rect x="270" y="395" width="95" height="18" rx="9" fill="#F5E6D3"/>
  <rect x="535" y="190" width="200" height="230" rx="25" fill="#DFF3E3" stroke="#2C5575" stroke-width="4"/>
  <text x="585" y="250" fill="#0F3B5F" font-size="52" font-family="Arial, sans-serif" font-weight="700">AEP</text>
  <path d="M575 320h120M575 360h90" stroke="#2C5575" stroke-width="6" stroke-linecap="round"/>
  <path d="M455 325c42-42 73-45 113-8" fill="none" stroke="#2C5575" stroke-width="7" stroke-linecap="round"/>
  <path d="M555 312l18 3-9 16" fill="none" stroke="#2C5575" stroke-width="7" stroke-linecap="round" stroke-linejoin="round"/>
  <text x="198" y="565" fill="#0F3B5F" font-size="30" font-family="Arial, sans-serif" font-weight="700">Review changes before surprises happen</text>

</svg>