<svg xmlns="http://www.w3.org/2000/svg" width="960" height="640" viewBox="0 0 960 640" role="img" aria-labelledby="title desc">
  <title id="title">Compare Medicare options</title>
  <desc id="desc">Friendly Medicare in Spokane illustration in soft blue, green, and warm neutral tones.</desc>
  <defs>
    <linearGradient id="softBg" x1="0" y1="0" x2="1" y2="1">
      <stop offset="0%" stop-color="#EFF8FF"/>
      <stop offset="100%" stop-color="#F7FBF7"/>
    </linearGradient>
    <filter id="shadow" x="-20%" y="-20%" width="140%" height="140%">
      <feDropShadow dx="0" dy="10" stdDeviation="14" flood-color="#0F3B5F" flood-opacity="0.12"/>
    </filter>
  </defs>
  <rect width="100%" height="100%" rx="48" fill="url(#softBg)"/>
  
  <rect x="115" y="120" width="730" height="400" rx="38" fill="#FFFFFF" filter="url(#shadow)"/>
  <rect x="180" y="185" width="180" height="245" rx="24" fill="#EAF6FF" stroke="#2C5575" stroke-width="4"/>
  <rect x="390" y="185" width="180" height="245" rx="24" fill="#DFF3E3" stroke="#2C5575" stroke-width="4"/>
  <rect x="600" y="185" width="180" height="245" rx="24" fill="#F5E6D3" stroke="#2C5575" stroke-width="4"/>
  <text x="230" y="235" fill="#0F3B5F" font-size="26" font-family="Arial, sans-serif" font-weight="700">Plan A</text>
  <text x="440" y="235" fill="#0F3B5F" font-size="26" font-family="Arial, sans-serif" font-weight="700">Plan B</text>
  <text x="650" y="235" fill="#0F3B5F" font-size="26" font-family="Arial, sans-serif" font-weight="700">Plan C</text>
  <g stroke="#2C5575" stroke-width="5" fill="none" stroke-linecap="round">
    <path d="M220 285h85"/><path d="M220 330h110"/><path d="M220 375h70"/>
    <path d="M430 285h85"/><path d="M430 330h110"/><path d="M430 375h70"/>
    <path d="M640 285h85"/><path d="M640 330h110"/><path d="M640 375h70"/>
  </g>
  <circle cx="480" cy="470" r="40" fill="#2864C8"/>
  <path d="M462 470h36M488 456l16 14-16 14" fill="none" stroke="#FFFFFF" stroke-width="6" stroke-linecap="round" stroke-linejoin="round"/>
  <text x="235" y="565" fill="#0F3B5F" font-size="30" font-family="Arial, sans-serif" font-weight="700">Compare options side-by-side</text>

</svg>