<svg xmlns="http://www.w3.org/2000/svg" width="960" height="640" viewBox="0 0 960 640" role="img" aria-labelledby="title desc">
  <title id="title">Helping a parent with Medicare</title>
  <desc id="desc">Friendly Medicare in Spokane illustration in soft blue, green, and warm neutral tones.</desc>
  <defs>
    <linearGradient id="softBg" x1="0" y1="0" x2="1" y2="1">
      <stop offset="0%" stop-color="#EFF8FF"/>
      <stop offset="100%" stop-color="#F7FBF7"/>
    </linearGradient>
    <filter id="shadow" x="-20%" y="-20%" width="140%" height="140%">
      <feDropShadow dx="0" dy="10" stdDeviation="14" flood-color="#0F3B5F" flood-opacity="0.12"/>
    </filter>
  </defs>
  <rect width="100%" height="100%" rx="48" fill="url(#softBg)"/>
  
  <rect x="110" y="130" width="740" height="390" rx="38" fill="#FFFFFF" filter="url(#shadow)"/>
  <ellipse cx="305" cy="428" rx="155" ry="48" fill="#F5E6D3"/>
  <circle cx="250" cy="260" r="48" fill="#F5E6D3" stroke="#2C5575" stroke-width="4"/>
  <path d="M205 248c28-42 68-42 96 0" fill="#5F7284"/>
  <circle cx="238" cy="260" r="4" fill="#203445"/><circle cx="265" cy="260" r="4" fill="#203445"/>
  <path d="M235 286c18 12 34 12 50 0" fill="none" stroke="#203445" stroke-width="4" stroke-linecap="round"/>
  <path d="M190 315c42-26 94-26 130 0v104H190z" fill="#7EB77F" opacity="0.88"/>
  <circle cx="410" cy="240" r="45" fill="#F5E6D3" stroke="#2C5575" stroke-width="4"/>
  <path d="M370 235c22-38 65-32 84 2" fill="#0F3B5F"/>
  <circle cx="398" cy="244" r="4" fill="#203445"/><circle cx="423" cy="244" r="4" fill="#203445"/>
  <path d="M392 270c18 12 36 12 52 0" fill="none" stroke="#203445" stroke-width="4" stroke-linecap="round"/>
  <path d="M355 295c42-25 92-25 126 0v108H355z" fill="#2864C8" opacity="0.88"/>
  <rect x="510" y="205" width="255" height="210" rx="22" fill="#EAF6FF" stroke="#2C5575" stroke-width="4"/>
  <text x="545" y="255" fill="#0F3B5F" font-size="28" font-family="Arial, sans-serif" font-weight="700">Parent Coverage</text>
  <rect x="550" y="290" width="160" height="16" rx="8" fill="#BFE4FF"/>
  <rect x="550" y="326" width="130" height="16" rx="8" fill="#DFF3E3"/>
  <rect x="550" y="362" width="180" height="16" rx="8" fill="#F5E6D3"/>
  <text x="205" y="565" fill="#0F3B5F" font-size="30" font-family="Arial, sans-serif" font-weight="700">Help a loved one feel supported</text>

</svg>