<svg xmlns="http://www.w3.org/2000/svg" width="960" height="640" viewBox="0 0 960 640" role="img" aria-labelledby="title desc">
  <title id="title">Spokane office location</title>
  <desc id="desc">Friendly Medicare in Spokane illustration in soft blue, green, and warm neutral tones.</desc>
  <defs>
    <linearGradient id="softBg" x1="0" y1="0" x2="1" y2="1">
      <stop offset="0%" stop-color="#EFF8FF"/>
      <stop offset="100%" stop-color="#F7FBF7"/>
    </linearGradient>
    <filter id="shadow" x="-20%" y="-20%" width="140%" height="140%">
      <feDropShadow dx="0" dy="10" stdDeviation="14" flood-color="#0F3B5F" flood-opacity="0.12"/>
    </filter>
  </defs>
  <rect width="100%" height="100%" rx="48" fill="url(#softBg)"/>
  
  <rect x="140" y="110" width="680" height="420" rx="36" fill="#FFFFFF" filter="url(#shadow)"/>
  <rect x="205" y="205" width="270" height="230" rx="18" fill="#EAF6FF" stroke="#2C5575" stroke-width="4"/>
  <rect x="230" y="235" width="55" height="55" rx="10" fill="#BFE4FF"/>
  <rect x="315" y="235" width="55" height="55" rx="10" fill="#BFE4FF"/>
  <rect x="400" y="235" width="55" height="55" rx="10" fill="#BFE4FF"/>
  <rect x="230" y="322" width="55" height="55" rx="10" fill="#BFE4FF"/>
  <rect x="315" y="322" width="55" height="55" rx="10" fill="#FFFFFF" stroke="#2C5575" stroke-width="3"/>
  <rect x="400" y="322" width="55" height="55" rx="10" fill="#BFE4FF"/>
  <path d="M190 205l150-95 150 95z" fill="#2864C8" opacity="0.86"/>
  <rect x="570" y="170" width="210" height="270" rx="28" fill="#DFF3E3" stroke="#2C5575" stroke-width="4"/>
  <path d="M675 245c0 55-58 108-58 108s-58-53-58-108a58 58 0 11116 0z" fill="#2864C8"/>
  <circle cx="617" cy="245" r="22" fill="#FFFFFF"/>
  <text x="570" y="420" fill="#0F3B5F" font-size="25" font-family="Arial, sans-serif" font-weight="700">Spokane Office</text>
  <text x="190" y="565" fill="#0F3B5F" font-size="30" font-family="Arial, sans-serif" font-weight="700">Meet in person or by phone</text>

</svg>