<svg xmlns="http://www.w3.org/2000/svg" width="960" height="640" viewBox="0 0 960 640" role="img" aria-labelledby="title desc">
  <title id="title">Prescription drug review</title>
  <desc id="desc">Friendly Medicare in Spokane illustration in soft blue, green, and warm neutral tones.</desc>
  <defs>
    <linearGradient id="softBg" x1="0" y1="0" x2="1" y2="1">
      <stop offset="0%" stop-color="#EFF8FF"/>
      <stop offset="100%" stop-color="#F7FBF7"/>
    </linearGradient>
    <filter id="shadow" x="-20%" y="-20%" width="140%" height="140%">
      <feDropShadow dx="0" dy="10" stdDeviation="14" flood-color="#0F3B5F" flood-opacity="0.12"/>
    </filter>
  </defs>
  <rect width="100%" height="100%" rx="48" fill="url(#softBg)"/>
  
  <rect x="130" y="110" width="700" height="420" rx="36" fill="#FFFFFF" filter="url(#shadow)"/>
  <rect x="220" y="150" width="330" height="340" rx="22" fill="#EAF6FF" stroke="#2C5575" stroke-width="4"/>
  <text x="260" y="205" fill="#0F3B5F" font-size="32" font-family="Arial, sans-serif" font-weight="700">Prescription List</text>
  <g stroke="#2C5575" stroke-width="4" fill="none" stroke-linecap="round">
    <path d="M270 260h180"/><path d="M270 315h220"/><path d="M270 370h150"/><path d="M270 425h195"/>
  </g>
  <g>
    <circle cx="245" cy="260" r="13" fill="#7EB77F"/><path d="M238 260l6 6 11-14" stroke="#FFFFFF" stroke-width="4" fill="none" stroke-linecap="round" stroke-linejoin="round"/>
    <circle cx="245" cy="315" r="13" fill="#7EB77F"/><path d="M238 315l6 6 11-14" stroke="#FFFFFF" stroke-width="4" fill="none" stroke-linecap="round" stroke-linejoin="round"/>
    <circle cx="245" cy="370" r="13" fill="#7EB77F"/><path d="M238 370l6 6 11-14" stroke="#FFFFFF" stroke-width="4" fill="none" stroke-linecap="round" stroke-linejoin="round"/>
    <circle cx="245" cy="425" r="13" fill="#7EB77F"/><path d="M238 425l6 6 11-14" stroke="#FFFFFF" stroke-width="4" fill="none" stroke-linecap="round" stroke-linejoin="round"/>
  </g>
  <rect x="610" y="210" width="120" height="210" rx="34" fill="#FFFFFF" stroke="#2C5575" stroke-width="5"/>
  <rect x="630" y="175" width="80" height="55" rx="14" fill="#2864C8"/>
  <rect x="635" y="275" width="70" height="28" rx="14" fill="#DFF3E3"/>
  <text x="640" y="350" fill="#0F3B5F" font-size="22" font-family="Arial, sans-serif" font-weight="700">Rx</text>
  <circle cx="680" cy="470" r="36" fill="#F5E6D3" stroke="#2C5575" stroke-width="4"/>
  <path d="M664 470h32" stroke="#E07A5F" stroke-width="10" stroke-linecap="round"/>
  <path d="M680 454v32" stroke="#E07A5F" stroke-width="10" stroke-linecap="round"/>
  <text x="205" y="560" fill="#0F3B5F" font-size="30" font-family="Arial, sans-serif" font-weight="700">Review medications before comparing plans</text>

</svg>