<svg xmlns="http://www.w3.org/2000/svg" width="960" height="640" viewBox="0 0 960 640" role="img" aria-labelledby="title desc">
  <title id="title">Turning 65 Medicare checklist</title>
  <desc id="desc">Friendly Medicare in Spokane illustration in soft blue, green, and warm neutral tones.</desc>
  <defs>
    <linearGradient id="softBg" x1="0" y1="0" x2="1" y2="1">
      <stop offset="0%" stop-color="#EFF8FF"/>
      <stop offset="100%" stop-color="#F7FBF7"/>
    </linearGradient>
    <filter id="shadow" x="-20%" y="-20%" width="140%" height="140%">
      <feDropShadow dx="0" dy="10" stdDeviation="14" flood-color="#0F3B5F" flood-opacity="0.12"/>
    </filter>
  </defs>
  <rect width="100%" height="100%" rx="48" fill="url(#softBg)"/>
  
  <rect x="160" y="100" width="640" height="430" rx="36" fill="#FFFFFF" filter="url(#shadow)"/>
  <rect x="220" y="150" width="270" height="300" rx="26" fill="#EAF6FF" stroke="#2C5575" stroke-width="4"/>
  <rect x="220" y="150" width="270" height="72" rx="26" fill="#2864C8"/>
  <text x="270" y="205" fill="#FFFFFF" font-size="36" font-family="Arial, sans-serif" font-weight="700">Turning</text>
  <text x="278" y="340" fill="#0F3B5F" font-size="104" font-family="Arial, sans-serif" font-weight="700">65</text>
  <rect x="545" y="170" width="190" height="250" rx="22" fill="#DFF3E3" stroke="#2C5575" stroke-width="4"/>
  <text x="584" y="220" fill="#0F3B5F" font-size="28" font-family="Arial, sans-serif" font-weight="700">Checklist</text>
  <g stroke="#2C5575" stroke-width="4" fill="none" stroke-linecap="round">
    <path d="M585 270h98"/><path d="M585 320h112"/><path d="M585 370h86"/>
  </g>
  <g fill="#7EB77F">
    <circle cx="565" cy="270" r="11"/><circle cx="565" cy="320" r="11"/><circle cx="565" cy="370" r="11"/>
  </g>
  <path d="M495 305c24-20 46-20 70-2" fill="none" stroke="#2C5575" stroke-width="6" stroke-linecap="round"/>
  <text x="230" y="565" fill="#0F3B5F" font-size="30" font-family="Arial, sans-serif" font-weight="700">Know your next Medicare steps</text>

</svg>